# Blender v2.78 (sub 0) OBJ File: 'coin.blend'
# www.blender.org
mtllib coin.mtl
o Cylinder_Cylinder.001
v 0.000000 -1.400000 -11.715000
v 0.000000 1.400000 -11.715000
v 5.857500 -1.400000 -10.145488
v 5.857500 1.400000 -10.145488
v 10.145488 -1.400000 -5.857500
v 10.145488 1.400000 -5.857500
v 11.715000 -1.400000 0.000001
v 11.715000 1.400000 0.000001
v 10.145488 -1.400000 5.857501
v 10.145488 1.400000 5.857501
v 5.857501 -1.400000 10.145488
v 5.857501 1.400000 10.145488
v 0.000002 -1.400000 11.715000
v 0.000002 1.400000 11.715000
v -5.857498 -1.400000 10.145489
v -5.857498 1.400000 10.145489
v -10.145486 -1.400000 5.857503
v -10.145486 1.400000 5.857503
v -11.715000 -1.400000 0.000005
v -11.715000 1.400000 0.000005
v -10.145491 -1.400000 -5.857494
v -10.145491 1.400000 -5.857494
v -5.857507 -1.400000 -10.145484
v -5.857507 1.400000 -10.145484
vt 0.9908 0.9819
vt 0.9563 0.9683
vt 0.9735 0.9989
vt 0.9877 0.9935
vt 0.9481 0.9335
vt 0.9997 0.9335
vt 0.9991 0.9663
vt 0.9486 0.9662
vt 0.9653 0.9721
vt 0.9672 0.9846
vt 0.9629 0.9850
vt 0.9625 0.9730
vt 0.9483 0.9334
vt 0.9996 0.9334
vt 0.9994 0.9661
vt 0.9485 0.9662
vt 0.9676 0.9844
vt 0.9728 0.9945
vt 0.9614 0.9945
vt 0.9562 0.9844
vt 0.9483 0.9334
vt 0.9998 0.9335
vt 0.9995 0.9661
vt 0.9483 0.9663
vt 0.9690 0.9752
vt 0.9690 0.9906
vt 0.9650 0.9906
vt 0.9650 0.9752
vt 0.9484 0.9334
vt 0.9998 0.9334
vt 0.9996 0.9660
vt 0.9483 0.9661
vt 0.9971 0.9848
vt 0.9972 0.9938
vt 0.9496 0.9938
vt 0.9502 0.9847
vt 0.9995 0.9334
vt 0.9481 0.9335
vt 0.9481 0.9662
vt 0.9994 0.9661
vt 0.2386 0.9641
vt 0.0739 0.8746
vt 0.0031 0.7501
vt 0.0732 0.6271
vt 0.2492 0.5371
vt 0.4758 0.5044
vt 0.7141 0.5382
vt 0.8777 0.6258
vt 0.9393 0.7555
vt 0.8801 0.8727
vt 0.7007 0.9656
vt 0.4796 0.9989
vt 0.9994 0.9976
vt 0.9996 0.9998
vt 0.9485 0.9998
vt 0.9484 0.9972
vt 0.9483 0.9335
vt 0.9998 0.9335
vt 0.9998 0.9660
vt 0.9483 0.9662
vt 0.8743 0.3761
vt 0.7085 0.4658
vt 0.4745 0.4960
vt 0.2471 0.4593
vt 0.0699 0.3753
vt 0.0035 0.2493
vt 0.0703 0.1249
vt 0.2400 0.0354
vt 0.4815 0.0041
vt 0.7070 0.0381
vt 0.8751 0.1258
vt 0.9406 0.2504
vn 0.2588 0.0000 -0.9659
vn 0.7071 0.0000 -0.7071
vn 0.9659 0.0000 -0.2588
vn 0.9659 0.0000 0.2588
vn 0.7071 0.0000 0.7071
vn 0.2588 0.0000 0.9659
vn -0.2588 0.0000 0.9659
vn -0.7071 0.0000 0.7071
vn -0.9659 0.0000 0.2588
vn -0.9659 0.0000 -0.2588
vn 0.0000 1.0000 -0.0000
vn -0.7071 0.0000 -0.7071
vn -0.2588 0.0000 -0.9659
vn 0.0000 -1.0000 0.0000
usemtl Material.001
s off
f 1/1/1 2/2/1 4/3/1 3/4/1
f 3/5/2 4/6/2 6/7/2 5/8/2
f 5/9/3 6/10/3 8/11/3 7/12/3
f 7/13/4 8/14/4 10/15/4 9/16/4
f 9/17/5 10/18/5 12/19/5 11/20/5
f 11/21/6 12/22/6 14/23/6 13/24/6
f 13/25/7 14/26/7 16/27/7 15/28/7
f 15/29/8 16/30/8 18/31/8 17/32/8
f 17/33/9 18/34/9 20/35/9 19/36/9
f 19/37/10 20/38/10 22/39/10 21/40/10
f 4/41/11 2/42/11 24/43/11 22/44/11 20/45/11 18/46/11 16/47/11 14/48/11 12/49/11 10/50/11 8/51/11 6/52/11
f 21/53/12 22/54/12 24/55/12 23/56/12
f 23/57/13 24/58/13 2/59/13 1/60/13
f 1/61/14 3/62/14 5/63/14 7/64/14 9/65/14 11/66/14 13/67/14 15/68/14 17/69/14 19/70/14 21/71/14 23/72/14
